<svg version="1.2" baseProfile="tiny-ps" xmlns="http://www.w3.org/2000/svg" viewBox="0 0 18 18" width="18" height="18">
	<title>Home-svg</title>
	<style>
		tspan { white-space:pre }
		.shp0 { fill: #ffffff } 
	</style>
	<path id="Layer" class="shp0" d="M6.62 16.04L6.62 13.45C6.62 12.78 7.16 12.24 7.83 12.24L10.27 12.24C10.59 12.24 10.9 12.37 11.13 12.6C11.35 12.82 11.48 13.13 11.48 13.45L11.48 16.04C11.48 16.32 11.59 16.59 11.78 16.78C11.98 16.98 12.24 17.09 12.52 17.09L14.19 17.09C14.97 17.09 15.72 16.78 16.27 16.24C16.82 15.69 17.13 14.95 17.13 14.18L17.13 6.77C17.13 6.15 16.85 5.56 16.37 5.16L10.7 0.66C9.71 -0.13 8.3 -0.1 7.34 0.72L1.8 5.16C1.29 5.55 0.99 6.14 0.98 6.77L0.98 14.17C0.98 15.78 2.29 17.09 3.92 17.09L5.54 17.09C6.12 17.09 6.59 16.62 6.59 16.05L6.62 16.04Z" />
</svg>