<svg xmlns="http://www.w3.org/2000/svg" width="272" height="59.036" viewBox="0 0 272 59.036">
  <g id="Group_1126" data-name="Group 1126" transform="translate(-16367 179.5)">
    <g id="Group_1114" data-name="Group 1114" transform="translate(-3883 -3361.1)">
      <path id="Path_3851" data-name="Path 3851" d="M1084.411,6903.361a7.862,7.862,0,0,1-3.211-1.921l.838-1.657a8.146,8.146,0,0,0,2.938,1.789,10.788,10.788,0,0,0,3.776.678,6.915,6.915,0,0,0,4.1-1,3.079,3.079,0,0,0,1.365-2.6,2.6,2.6,0,0,0-.744-1.949,5.065,5.065,0,0,0-1.817-1.121,28.806,28.806,0,0,0-2.994-.856,31.869,31.869,0,0,1-3.663-1.121,5.987,5.987,0,0,1-2.335-1.638,4.356,4.356,0,0,1-.97-2.994,5.135,5.135,0,0,1,.81-2.806,5.587,5.587,0,0,1,2.5-2.015,10.269,10.269,0,0,1,4.181-.753,12.26,12.26,0,0,1,3.408.48,9.956,9.956,0,0,1,2.891,1.318l-.725,1.713a10.007,10.007,0,0,0-2.731-1.261,10.148,10.148,0,0,0-2.844-.423,6.619,6.619,0,0,0-4.021,1.026,3.183,3.183,0,0,0-1.346,2.655,2.625,2.625,0,0,0,.744,1.958,4.775,4.775,0,0,0,1.855,1.13c.744.264,1.751.546,3,.856a30.439,30.439,0,0,1,3.616,1.093,5.915,5.915,0,0,1,2.335,1.629,4.3,4.3,0,0,1,.96,2.947,5,5,0,0,1-.829,2.806,5.665,5.665,0,0,1-2.542,2.005,10.654,10.654,0,0,1-4.209.744,12.888,12.888,0,0,1-4.331-.716" transform="translate(19230.115 -3669.9)" fill="#b6510d"/>
      <path id="Path_3852" data-name="Path 3852" d="M1272.032,6921.192a3.955,3.955,0,0,1-1.441.8,5.68,5.68,0,0,1-1.789.273,4.511,4.511,0,0,1-3.314-1.158,4.44,4.44,0,0,1-1.158-3.286v-9.237H1261.6v-1.742h2.731V6903.5h2.062v3.343h4.651v1.742h-4.651v9.124a2.915,2.915,0,0,0,.678,2.081,2.6,2.6,0,0,0,1.958.716,3.653,3.653,0,0,0,1.234-.208,3.018,3.018,0,0,0,1.036-.583Z" transform="translate(19066.701 -3688.107)" fill="#b6510d"/>
      <path id="Path_3853" data-name="Path 3853" d="M1401.552,7071.8a1.564,1.564,0,0,1-.452-1.13,1.526,1.526,0,0,1,.452-1.121,1.478,1.478,0,0,1,1.092-.452,1.53,1.53,0,0,1,1.1.452,1.484,1.484,0,0,1,.461,1.121,1.535,1.535,0,0,1-.461,1.13,1.5,1.5,0,0,1-1.1.461,1.433,1.433,0,0,1-1.092-.461" transform="translate(18940.334 -3838.115)" fill="#b6510d"/>
      <path id="Path_3854" data-name="Path 3854" d="M529.805,6544.6H430v8.389l6.167,8.267v35.751h2.118v-32.861l9.67,13.172L458.1,6591.3l1.328-.01L479,6563.883l.066,33.124h2.119l-.019-10.7h.019l-.047-25.441,4.312-6.017v42.163H487.3v-46.362h-1.149l-5.018,7.052-.009-7.326h-1.8l-20.648,28.746-20.714-28.746h-1.8v7.749l-4.322-5.884v-5.8h96.218v55.486H431.855v-40.3L430,6558.9v44.705l99.777.028Zm-91.51,9.425,19.81,27.315h1.158l19.745-27.418.009,6.742-20.234,28.266-11.628-15.837-8.86-12.306Z" transform="translate(19820 -3363)" fill="#b6510d"/>
    </g>
    <g id="Group_1115" data-name="Group 1115" transform="translate(-3614.801 489.4)">
      <path id="Path_3783" data-name="Path 3783" d="M297.255,2714.115l-.022-11.155-5.528,9.231h-1.393l-5.528-9.076v11H281.8V2697.3h2.576l6.677,11.144,6.556-11.144h2.576l.022,16.815Z" transform="translate(19820 -3364.957)" fill="#001e61"/>
      <path id="Path_3784" data-name="Path 3784" d="M493.822,2711.373a8.233,8.233,0,0,1-3.239-3.095,8.529,8.529,0,0,1-1.183-4.433,8.423,8.423,0,0,1,1.183-4.433,8.237,8.237,0,0,1,3.239-3.1,10.191,10.191,0,0,1,9.275,0,8.213,8.213,0,0,1,3.239,3.085,8.94,8.94,0,0,1,0,8.888,8.28,8.28,0,0,1-3.239,3.084,10.189,10.189,0,0,1-9.275,0m7.661-2.388a5.459,5.459,0,0,0,2.112-2.112,6.123,6.123,0,0,0,.774-3.04,6.01,6.01,0,0,0-.774-3.04,5.388,5.388,0,0,0-2.112-2.112,6.008,6.008,0,0,0-3.029-.752,6.156,6.156,0,0,0-3.029.752,5.46,5.46,0,0,0-2.112,2.112,6.123,6.123,0,0,0-.774,3.04,6.009,6.009,0,0,0,.774,3.04,5.388,5.388,0,0,0,2.112,2.112,6.009,6.009,0,0,0,3.029.752,5.9,5.9,0,0,0,3.029-.752" transform="translate(19635.352 -3363.088)" fill="#001e61"/>
      <path id="Path_3785" data-name="Path 3785" d="M705.111,2714.026l-3.438-4.93c-.144.011-.365.022-.652.022h-3.792v4.9H694.1V2697.2h6.921a9.429,9.429,0,0,1,3.814.719,5.5,5.5,0,0,1,2.487,2.068,5.8,5.8,0,0,1,.862,3.195,5.72,5.72,0,0,1-.929,3.272,5.531,5.531,0,0,1-2.653,2.045l3.869,5.528Zm-1.128-13.31a4.8,4.8,0,0,0-3.1-.863H697.24v6.7h3.648a4.72,4.72,0,0,0,3.1-.874,3.433,3.433,0,0,0,0-4.964" transform="translate(19453.283 -3364.867)" fill="#001e61"/>
      <path id="Path_3786" data-name="Path 3786" d="M847.772,2699.942H842.2V2697.3h14.272v2.642h-5.583v14.173h-3.118Z" transform="translate(19321.555 -3364.957)" fill="#001e61"/>
      <path id="Path_3787" data-name="Path 3787" d="M1003,2703.558h2.952v6.7a9.4,9.4,0,0,1-3.029,1.581,11.741,11.741,0,0,1-3.56.553,9.674,9.674,0,0,1-4.643-1.117,8.211,8.211,0,0,1-3.239-3.084,8.511,8.511,0,0,1-1.183-4.444,8.408,8.408,0,0,1,1.183-4.444,8.2,8.2,0,0,1,3.261-3.085,9.749,9.749,0,0,1,4.676-1.116,10.27,10.27,0,0,1,3.847.7,7.6,7.6,0,0,1,2.908,2.045l-1.968,1.923a6.321,6.321,0,0,0-4.632-1.923,6.548,6.548,0,0,0-3.162.74,5.471,5.471,0,0,0-2.167,2.09,6.022,6.022,0,0,0-.785,3.073,5.946,5.946,0,0,0,.785,3.029,5.527,5.527,0,0,0,2.167,2.112,6.384,6.384,0,0,0,3.14.774,6.782,6.782,0,0,0,3.46-.863v-5.24Z" transform="translate(19189.826 -3363)" fill="#001e61"/>
      <path id="Path_3788" data-name="Path 3788" d="M1353.1,2703.558h2.952v6.7a9.4,9.4,0,0,1-3.029,1.581,11.74,11.74,0,0,1-3.56.553,9.674,9.674,0,0,1-4.643-1.117,8.209,8.209,0,0,1-3.239-3.084,8.94,8.94,0,0,1,0-8.888,8.2,8.2,0,0,1,3.261-3.085,9.749,9.749,0,0,1,4.676-1.116,10.269,10.269,0,0,1,3.847.7,7.592,7.592,0,0,1,2.907,2.045l-1.968,1.923a6.321,6.321,0,0,0-4.632-1.923,6.547,6.547,0,0,0-3.162.74,5.471,5.471,0,0,0-2.167,2.09,6.023,6.023,0,0,0-.785,3.073,5.947,5.947,0,0,0,.785,3.029,5.527,5.527,0,0,0,2.167,2.112,6.383,6.383,0,0,0,3.139.774,6.783,6.783,0,0,0,3.46-.863v-5.24Z" transform="translate(18878.432 -3363)" fill="#001e61"/>
      <path id="Path_3789" data-name="Path 3789" d="M1542.714,2711.5v2.62H1530.1V2697.3h12.271v2.609h-9.154v4.378h8.126v2.576h-8.126v4.632Z" transform="translate(18709.703 -3364.957)" fill="#001e61"/>
      <path id="Path_3790" data-name="Path 3790" d="M539.313,2942.556a4.848,4.848,0,0,1-1.813-.995l.586-1.228a4.721,4.721,0,0,0,1.614.918,6,6,0,0,0,2.023.354,3.658,3.658,0,0,0,2.045-.465,1.422,1.422,0,0,0,.674-1.238,1.215,1.215,0,0,0-.365-.917,2.476,2.476,0,0,0-.907-.542c-.365-.122-.873-.266-1.537-.42a15.763,15.763,0,0,1-2-.6,3.38,3.38,0,0,1-1.3-.917,2.429,2.429,0,0,1-.542-1.669,2.854,2.854,0,0,1,.464-1.592,3.1,3.1,0,0,1,1.4-1.128,5.624,5.624,0,0,1,2.344-.42,7.377,7.377,0,0,1,1.913.254,5.018,5.018,0,0,1,1.614.719l-.52,1.26a5.247,5.247,0,0,0-1.481-.663,5.4,5.4,0,0,0-1.537-.232,3.4,3.4,0,0,0-2,.487,1.487,1.487,0,0,0-.663,1.26,1.184,1.184,0,0,0,.376.917,2.717,2.717,0,0,0,.94.553c.376.132.873.266,1.515.42a15.69,15.69,0,0,1,2,.6,3.316,3.316,0,0,1,1.293.906,2.389,2.389,0,0,1,.542,1.647,2.769,2.769,0,0,1-.475,1.581,3.161,3.161,0,0,1-1.426,1.127,5.942,5.942,0,0,1-2.355.42,7.882,7.882,0,0,1-2.421-.4" transform="translate(19592.568 -3573.443)" fill="#001e61"/>
      <path id="Path_3791" data-name="Path 3791" d="M679.67,2934.071H675.9V2932.7H685v1.371h-3.77v9.629H679.67Z" transform="translate(19469.469 -3574.333)" fill="#001e61"/>
      <path id="Path_3792" data-name="Path 3792" d="M837.763,2943.7l-2.377-3.383c-.3.022-.52.033-.7.033h-2.72v3.35H830.4v-11h4.289a5.127,5.127,0,0,1,3.361,1.017,3.46,3.46,0,0,1,1.227,2.808,3.661,3.661,0,0,1-.63,2.167,3.584,3.584,0,0,1-1.791,1.3l2.609,3.692h-1.7Zm-.829-5.317a2.538,2.538,0,0,0,0-3.67,3.561,3.561,0,0,0-2.277-.642h-2.675v4.953h2.675a3.558,3.558,0,0,0,2.277-.641" transform="translate(19332.049 -3574.333)" fill="#001e61"/>
      <path id="Path_3793" data-name="Path 3793" d="M998.682,2942.34v1.359H990.7v-11h7.761v1.371H992.27v3.383h5.516v1.338H992.27v3.549Z" transform="translate(19189.473 -3574.333)" fill="#001e61"/>
      <path id="Path_3794" data-name="Path 3794" d="M1150.782,2942.34v1.359H1142.8v-11h7.761v1.371h-6.191v3.383h5.517v1.338h-5.517v3.549Z" transform="translate(19054.186 -3574.333)" fill="#001e61"/>
      <path id="Path_3795" data-name="Path 3795" d="M1284.27,2934.071h-3.77V2932.7h9.1v1.371h-3.77v9.629h-1.559Z" transform="translate(18931.709 -3574.333)" fill="#001e61"/>
      <path id="Path_3796" data-name="Path 3796" d="M1166.039,2703.79l1.448-3.372,3.173,7.352h-.033l2.863,6.345h3.151l-7.595-16.815h-3.073l-7.573,16.815h3Z" transform="translate(19040.311 -3364.957)" fill="#001e61"/>
    </g>
    <text id="INFINITE_BROKER_SOLUTIONS" data-name="INFINITE BROKER SOLUTIONS" transform="translate(16487 -123)" fill="#1c1c1c" font-size="9.8" font-family="Montserrat-Medium, Montserrat" font-weight="500" opacity="0.88"><tspan x="0" y="0">INFINITE BROKER SOLUTIONS</tspan></text>
  </g>
</svg>
